<svg width="126" height="33" viewBox="0 0 126 33" fill="none" xmlns="http://www.w3.org/2000/svg">
<path d="M48.3966 2.43921C50.4518 2.43921 52.2361 2.77799 53.7493 3.45554C55.2851 4.1331 56.4596 5.10427 57.2726 6.36904C58.0857 7.63381 58.4922 9.13573 58.4922 10.8748C58.4922 12.5913 58.0857 14.0932 57.2726 15.3806C56.4596 16.6453 55.2851 17.6165 53.7493 18.2941C52.2361 18.9716 50.4518 19.3104 48.3966 19.3104H43.0438V26.1537H38.6396V2.43921H48.3966ZM48.1933 15.5838C50.113 15.5838 51.5698 15.1773 52.5636 14.3642C53.5573 13.5512 54.0542 12.388 54.0542 10.8748C54.0542 9.36159 53.5573 8.19845 52.5636 7.38538C51.5698 6.57231 50.113 6.16577 48.1933 6.16577H43.0438V15.5838H48.1933Z" fill="black"/>
<path d="M60.6245 8.06293H64.8592V26.1537H60.6245V8.06293ZM62.7588 5.08168C61.9909 5.08168 61.3472 4.84454 60.8277 4.37025C60.3083 3.87337 60.0485 3.26357 60.0485 2.54084C60.0485 1.81811 60.3083 1.2196 60.8277 0.745312C61.3472 0.248437 61.9909 0 62.7588 0C63.5267 0 64.1704 0.237145 64.6898 0.711434C65.2093 1.16314 65.469 1.73906 65.469 2.43921C65.469 3.18452 65.2093 3.81691 64.6898 4.33637C64.1929 4.83324 63.5493 5.08168 62.7588 5.08168Z" fill="black"/>
<path d="M76.1089 18.3957L72.9582 21.3769V26.1537H68.7234V1.01634H72.9582V16.1936L81.7327 8.06293H86.8144L79.2596 15.6516L87.5258 26.1537H82.3763L76.1089 18.3957Z" fill="black"/>
<path d="M95.9527 18.3957L92.8021 21.3769V26.1537H88.5673V1.01634H92.8021V16.1936L101.577 8.06293H106.658L99.1034 15.6516L107.37 26.1537H102.22L95.9527 18.3957Z" fill="black"/>
<path d="M125.595 8.06293V23.4096C125.595 29.7787 122.467 32.9632 116.211 32.9632C114.562 32.9632 112.981 32.7373 111.468 32.2856C109.978 31.8565 108.747 31.2241 107.775 30.3885L109.673 27.2039C110.441 27.8589 111.378 28.3784 112.484 28.7623C113.591 29.1463 114.754 29.3382 115.974 29.3382C117.826 29.3382 119.181 28.8865 120.039 27.9831C120.92 27.1023 121.361 25.7359 121.361 23.8839V23.037C120.683 23.7823 119.859 24.3582 118.887 24.7647C117.916 25.1487 116.866 25.3407 115.737 25.3407C113.32 25.3407 111.412 24.6744 110.011 23.3419C108.634 22.0093 107.945 20.0105 107.945 17.3455V8.06293H112.18V16.8034C112.18 18.407 112.541 19.6153 113.264 20.4284C114.009 21.2188 115.059 21.6141 116.414 21.6141C117.928 21.6141 119.125 21.1511 120.005 20.2251C120.909 19.2991 121.361 17.9553 121.361 16.1936V8.06293H125.595Z" fill="black"/>
<path d="M9.20813 12.8391H0.555879C0.248756 12.8391 0 12.5753 0 12.2495V3.07296C0 2.74723 0.248756 2.4834 0.555879 2.4834H9.20813C9.51525 2.4834 9.76401 2.74723 9.76401 3.07296V12.2495C9.76401 12.5753 9.51525 12.8391 9.20813 12.8391Z" fill="#DBEF06"/>
<path d="M33.6183 25.8577H24.966C24.6589 25.8577 24.4102 25.593 24.4102 25.2662V3.07481C24.4102 2.74806 24.6589 2.4834 24.966 2.4834H33.6183C33.9254 2.4834 34.1742 2.74806 34.1742 3.07481V25.2662C34.1742 25.593 33.9254 25.8577 33.6183 25.8577Z" fill="#DBEF06"/>
<path d="M21.3411 25.8586H0.553989C0.24791 25.8586 0 25.5948 0 25.269V16.0925C0 15.7668 0.24791 15.5029 0.553989 15.5029H21.3411C21.6471 15.5029 21.895 15.7668 21.895 16.0925V25.269C21.895 25.5948 21.6471 25.8586 21.3411 25.8586Z" fill="#DBEF06"/>
<path d="M17.0128 12.987C14.1534 12.987 11.835 10.6354 11.835 7.73521C11.835 4.83498 14.1534 2.4834 17.0128 2.4834C19.8723 2.4834 22.1907 4.83498 22.1907 7.73521C22.1907 10.6354 19.8723 12.987 17.0128 12.987Z" fill="#DBEF06"/>
</svg>
