<svg xmlns="http://www.w3.org/2000/svg" id="Layer_1" data-name="Layer 1" viewBox="0 0 1081 707.17"><defs><style>.cls-1{fill:#fa0;}.cls-2{fill:#ff2727;}.cls-3{fill:#bababa;}.cls-4{fill:#fff;}.cls-5{fill:#6b8c19;}.cls-6{fill:#566b13;}</style></defs><path class="cls-1" d="M251.52,316.17s-11.07,13.92-11.78,20.35,2.14,10.53-.71,17-6.25,11.24-15.53,14.27c0,0,11.6,14.1,14.46,21.6s8.92,60-48.55,42.84L205.11,454s46.77-11.42,48.91-14.63S271.51,404,271.51,404l3.21-59.62L270.8,312.6l-7.5-9.28L254,301.18Z" transform="translate(0 0)"></path><path class="cls-2" d="M195,433.17s18.83,14.28,37,4.37c18-9.81,26-32.88,7-59.53-.38-.53-.79-1.05-1.2-1.55l-5.45-6.56a28.6,28.6,0,0,0,12.5-14.1c4.28-10.18,1-11.34.71-18.57s4.42-23.87,10-29.76,13.12,1.07,13.12,1.07l4,92.37s-6.29,26.37-7.63,27.44-28.37,23-30.25,24.36-30.52-5.62-30.52-5.62l-16.6-12.32Z" transform="translate(0 0)"></path><path d="M305.14,185.62c-76.31-3.49-236.76-18.12-290.62,8-17.82,12.13-16.13,47.86-11.18,63C6.18,267.42,18.85,271.4,28.06,268c4-1.55,8.66-3.37,8.4-7.42-.81-4.11-14.45-1.66-16.23-5.3,6.74-25.2,97-39.93,155-43,2.5-.08,2.58.66,1.1,2.18-59.15,66-147.63,196.79-149.06,244.12,1.26,22.91,35.85,47.21,49,41,3.27-1.55,4.07-4.44,2.49-6.54-.84-1-2.43-.27-4-1.57-2.09-1.9-2.22-5.36-2.23-7.79,3.83-49.39,89.31-209.66,150.12-269.9,28.29-.74,57.48,1.09,75.87-2.64,10.66-1.73,18.05-4,25.28-10.88,4.57-4.06,8.27-9.64,8.93-14.89,0-.48-.13-.9-.64-1a6.53,6.53,0,0,0-2.41.38c-7.78,2.12-17.18,1.37-24.31.83Z" transform="translate(0 0)"></path><polygon points="851.25 323.56 851.25 325.34 848.13 325.34 848.13 333.94 846.36 333.94 846.36 325.34 843.25 325.34 843.25 323.56 851.25 323.56"></polygon><polygon points="863.82 333.94 863.82 328.94 860.27 333.9 856.68 328.93 856.68 333.94 854.91 333.94 854.91 323.4 860.27 330.85 865.59 323.4 865.59 333.94 863.82 333.94"></polygon><path class="cls-3" d="M404.84,47.86c-.17-2.52.86-5.43.06-7.66s-1.62-7.93-3.87-9.44-5.14.91-7.63.9a6.37,6.37,0,0,1-4.12-1.61c-2.83-2.94-.52-6.6-2.86-10s-13.24-8.43-13.24-8.43a3.45,3.45,0,0,0-2.56-4.43S371.92,2,361.89.2s-11.5,8.73-15.75,11.32-14.05,11.2-9.93,19.14c0,0-4.35,5.65-1.82,10.27l2.53,4.62s-2.81,3.2,7.27,9.78,7.35-7.66,7.35-7.66,1.66-10.48,13.83-.69c0,0-1.95,5.64,4,9.08s2.78,3.7,2.78,3.7-2.53,4.4,2.07,6.85,1.62-4.16,6.49-2.23,9.9,10.2,9.93,18.45-1.42,9-3.43,10.78a35.3,35.3,0,0,0-5.55,6c-1.73,2.42-9.58,2.33-11.4,5.3s-1.3,4.59-1.3,4.59-12.17,4.22-17.26,7.25-6,7.86-5.18,9.73,2,4.15.77,6.06-6.44,5.51-5.39,8.55,4.34,4.14,4.6,6.1-2.2,5.41-2.2,5.41-.83-2.05-4.33-4.14-4.26.28-5.31-1.61-.09-3.08-3.14-3.18-6.65-1.63-7-4.37S327,138.54,328,137s2.84-7,1.61-8.95-5.86-.55-7.06-2.66.26-10.12,1.68-10.66,4.37.3,4.92-.76-1.76-2.2.62-3.93,11.9-7.32,5.28-21.22c0,0-2.64-2.72-4.21-.09s1.82,9.11-2.05,11.76-8.7-.81-13.51,9-1.8,7.77-1.51,9.55-5.09,6.1-3.06,9.3a53.38,53.38,0,0,0,4.65,6.1s-1.89,1-4.16-2.77-3.29-5.89-3.29-5.89.3,6.57,3.07,9.7,4.65.92,7.31,3.46,1.75,3.53,6.07,6.52,2.21-.61,4.34,1.65.92,5.13,2.36,6.89,2.36,2.1,2.53,4.62.29,4.27,2.73,5.8,2.32,2.1,2.83,5.63-2.74,9.35-1.74,11,2.8,2.37,1.85,3.56a40.75,40.75,0,0,1-5.1,3q5.19-.81,10.38-1.73c1.43-.73,6.79-2.4,7.5-3.29,1-1.19,2.25-6.93,0-9.4s-4.49-4.36-1.8-6.81,4.15-2,4.51-.63.74,2.61,2.75.82,2.44-5.75,1.28-6.89c0,0,3.6-2.12.59-7.39-1.92-3.38-3-2.76-3.49-1.88a6.4,6.4,0,0,1-.41,1.07,4,4,0,0,1,.41-1.07,4.58,4.58,0,0,0-.7-4.35c-1.95-2.23-5.58-1.07-5.43-4.5s1.76-2.6,2.11-4.85-1.72-4.87-1.89-6.24c0,0,2.54-2.67,3.14-5.26,0,0,13-10.87,18.06-11.09s3.78.35,4.8-1.21-2.42-1.73.78-3.72,16.7-2.53,19.57-6.11,12-19,12.92-31.9S405,50.38,404.84,47.86m-20.51-6.12c-.73,2.18-4.81,2.49-7.28-1.16s.7-3.34.7-3.34c-.51-1.61,2-4.13,4.09-2.8,4,2.55,3.22,5.11,2.49,7.3m13.93,17.55c-1.61,3-1.21,7.48-4.56,5.61s.83-1.6-2.52-3.86-5.71-8.38-6.36-12.71,1.92-2.19,1.92-2.19c-1.47-1.38,1.5-5.12,3-4.7,3.12.88,8.5.77,9,4.69s-1.16,3.66.71,5.3.36,4.85-1.24,7.86" transform="translate(0 0)"></path><path class="cls-3" d="M329.85,57.47c-2.23-1-5.25,5.31-5.25,5.31s-2.41,6.72.76,9.14,2.42-1.35,2.77-3.59,3.5-2.71,4.19-5.86,0-3.83-2.47-5" transform="translate(0 0)"></path><path class="cls-3" d="M327.15,77c.35,1.4,1,2.65,2.56,2.14s3.36-2,3-3.18-1.1-2.09-2.17-1.88c-2.55.52-3.72,1.52-3.36,2.92" transform="translate(0 0)"></path><path class="cls-3" d="M403.77,17.08c1.4-1.59,2.07-7-.24-8.18a6.64,6.64,0,0,0-6.91,1.21c-1.78,1.65-4.07,5.11-2.21,7.9s3.44,5,5.73,3.79a3.68,3.68,0,0,0,1.91-4.62,1.73,1.73,0,0,1-.15-.4,2.74,2.74,0,0,1,.15.4c.24.45.76,1,1.72-.1" transform="translate(0 0)"></path><path class="cls-3" d="M392.42,2.72c1.2,2.12,2.24,2.07,3.22.51S395.53-.42,394,.11c-2.11.74-2.8.49-1.6,2.61" transform="translate(0 0)"></path><path d="M932.22,368.77l-.21-.29C913.18,342,878.73,341,854.4,363.06c-20.76,17.29-45.7,41.88-66.17,57.17-3.71,2.45-5.23,3.17-5.12.68,1.83-12.41,16.43-39.71,23.84-55.15,9.06-18.09,18-35.37,21.64-43.09a14.16,14.16,0,0,0,1.48-6.2c-.31-11.78-17-22.18-28-21.78-18.4,2.11-65.37,42.06-93.7,75.67-3.15,3.67-1.23.1-.4-1.69,21.76-45.7,48.11-89.9,73.14-132.16,1.18-8.43-21.77-20.46-32.71-16.09C726.81,238.82,685,307.28,654,365.1c-21.87,25.69-59.93,59.78-88.72,68.53-9.77,2.71-18,2.57-25.51-2.88-34-23.91,41.07-120.67,63.5-118,4.41,6.14-9.34,39.36-16.27,50.05a49.41,49.41,0,0,1-4.83,6.83c-4.65,4.57-6.33,7.6.68,7.74,25.65-3.28,60.78-36.53,54.83-59.37-5.94-12.94-19.17-22.31-31.8-29-9.49-4.62-19-7.5-28.73-5.64-19.46,3.81-44.13,24.16-63.05,50.14-5.35,7.22-12.73,11.64-19.39,17.56-10,8.13-27.13,22.48-22.07,12.74,8-14.34,18.55-31,29.32-48.45,9.21-11.19-.59-24.28-12-30.27-3.89-1.82-7.1-3.52-10-2.54-13.29,6.21-61.11,44.1-96.57,79.54-.53.18-.05-1,.95-2.88,11-20.38,25.6-43.35,27.89-49.51,3.1-8.85-24.89-28.19-31.45-20.32-4.93,4.63-30.1,43.48-48.83,72.59-10.41,11.86-21.43,23-32.46,30.55-.44.17-.63,0-.55-.45a11.9,11.9,0,0,1,.74-2.11c6.38-14.58,13-35.22,13.15-50-.82-24.61-27.4-48.43-49.41-50.84-15.86-1-30,7.35-39.78,16.1-5.08,4.05-7.41,8.75-12.08,11.59-31.25,6.55-56.82,53.17-60.35,92.41-1.5,12.23,3.19,23.58,10.68,33.37,11,13.58,24.59,25.58,40.73,27.25,26.55,1.62,54.79-18.88,77.65-43.28a134.64,134.64,0,0,0,20.29-11.24,9,9,0,0,1,3-1.49c1.16.11.35,1.9.05,2.85-3.08,8.16-5.68,15.08-5.87,21.45-1.06,18.8,28.59,31.22,39.35,28.19,3.3-.74,3.8-3.21,4.13-6.05,5.09-37.21,60.17-90.31,101.33-128.17-.28,1.34-4.66,7.15-6.17,9.6-4.9,8-10.36,15.57-11.67,24.73-.3,13.68,20.11,35.57,37.12,36.05,9.31-.25,15.07-7.27,22.34-13.19,5.52-5.13,2.43,2.46,2.21,5.12-1.31,8-2.21,16,0,24.07,6.05,23.25,40.52,53.75,64.92,52.21,27.4-1.53,56.36-26.19,79.58-51.92,1.17-1.1,2.81-3.28,2.67-.54-.82,5.28-1.87,10.84-1.13,16.15,1.63,12.61,16.23,30.89,29.22,33.84,4,1.05,9.16-1.22,10.73-5C691,409.69,752.52,353,778.34,329.39c-20.59,24.55-46.29,80.27-48.33,93.7-2.77,22.68,28.53,44.13,44.87,43.62,6.29.05,10.13-3.57,15.2-7.33,17.86-14,40.74-43.27,58.25-62.44,11.18-9.75,21.57-21.45,35.68-26.58,13.91-4.92,27.94,4.57,33.48,17.83,13.21,27.89,8.53,70.24-4.48,98.3-31.81,58.6-103.4,64.23-163.68,57.39-19.82-2-39.46-5.08-57.9-8-193.37-31-399.53-7.64-593.31,14.53-25.82,2.3-63.77,3.33-66.59,36.83a26.17,26.17,0,0,0,1,9.83c8,29,12.49,62.62,21.29,90.94,4,14.84,12.27,23,27.6,17.43,194-96.9,417.41-160.84,632-129.79,14.26,1.71,28.88,3.39,43.55,4.45,66.36,6.33,137.13-8.26,171-73.3,24.17-38.19,31.31-99.63,4.27-138M256,425.07c-.07.1-.1.19-.17.28-19.26,27-67.07,17.13-72-8.07S191,386.37,191,386.37c-1.89-.66-1.11-3.54,1.42-10.35a12.2,12.2,0,0,1,9.14-7.73c1.7-6.55,4.39-8,4.39-8,.69-3.89,9.66-12.86,9.14-12.3s-5.72,14-2.82,11.85,8.34-11,11.57-15.86a87.27,87.27,0,0,1,10.36-11.86,53.53,53.53,0,0,0-2.31,5.36c.52-.94,1.81-2.59,5-4.65,5.15-3.3,17.68-20,19.48-20.84s4-2.13,3.59-1.63a48.89,48.89,0,0,0-6.82,11.55c-1,2.66-3,9.68-3,9.68,1.36.44,2.77,3.2,2.77,3.2,6.45,3.33-.22,10-.22,10a5.41,5.41,0,0,1-.8,4.32c7.25,12.59-10.38,17.26-10.38,17.26,3.62,4.65-1.22,8.4-1.22,8.4,3-1.15,4.08.53,4.08.53-.06-3.88,6.3-6.43,8.37-4.38s1.55,3.7,1.55,3.7c3.67-.77,6.5.61,7.43,7.34s-5.51,8.26-5.51,8.26c8,7.41,8.78,22.91-.19,34.86" transform="translate(0 0)"></path><path class="cls-4" d="M73.75,648.92c-.57-6.7-.55-14.7-.93-22.69-.18-5.93-.79-12.26,2.65-17.55,5.44-6.89,11.68-3.37,12.36,4.29.39,1.89,0,4.82-.89,5.68-1.72,1.6-2.5-2.17-2.75-3.52-.85-5.54-5.57-5.89-7.17,0-.85,3.34-.34,6.42-.3,9.89.2,5.83.5,14.26.64,18.39a15.9,15.9,0,0,0,.73,5.24c1.46,3.48,4.79,2.89,6.14-.38,1.37-2.76.76-6.79,1.65-9.39.26-.67.57-1.69,1.35-1.89,3.28,1,1.4,10.79.39,13.31-1.25,4.37-7.74,9.2-11.35,5.14a12.89,12.89,0,0,1-2.49-6.35Z" transform="translate(0 0)"></path><path class="cls-4" d="M103.23,638.29c-1.5-.6-4.37.52-5.84,1.9-1.23,1.21-1.52,2.67-1.73,4.54a15.46,15.46,0,0,1-.9,4.57c-1,2.52-2.66,2.94-3.05,2.09.21-7.74,3.68-41,4.26-49.09,0-2,2.68-3.09,4.62-3,1.35.09,1.2,1.56,1.69,3.9l2,11.12c1.46,8.11,4.1,22.71,5.24,29.13.5,1.83-1.89,3.8-3.54,1.13-1.27-1.8-.64-4.9-2.61-6.21Zm-.46-5.54c1.08-.6.17-3-.06-4.85-1.17-6.58-2.55-14.89-3.76-21.42,0-.18-.09-.21-.12-.08-.19,1.62-1.84,21.29-2.3,27.42,0,1.37,1,.92,2.63.48a16,16,0,0,0,3.49-1.45Z" transform="translate(0 0)"></path><path class="cls-4" d="M112.29,595.71c2-1.21,4.13-.45,4.64,2.27,1.33,4.62,3.63,12.66,5.15,17.94,1,3.39,1.75,6.45,2.74,9.32.07.12.11.09.13-.1.07-2.11-.93-22.87-1-30.45-.18-2.23,2.78-4.75,3.43-1.54.33,6.76,1.33,34.67,1.65,42.61.53,2.54-3.11,5.13-4.5,2-2.78-8.79-6.92-25-9.58-33.11-.16,0,0,3,.18,7.52.25,6.62.61,16.39.86,23.11-.18,3.58,1.2,6-1.13,8.23-1.21.84-2.21-.11-2.18-1.33-.3-7.39-1.34-36.08-1.63-43.77a2.65,2.65,0,0,1,1.18-2.65Z" transform="translate(0 0)"></path><path class="cls-4" d="M133.14,589.63c2-1.21,4.19-.34,4.69,2.36.65,2.19,1.62,5.49,2.67,9,1.59,5.36,3.31,11.25,4.83,16.3.15.47.43,1.43.47.84,0-1.77-.8-21-1.05-28.28-.09-1.38.19-3.36,1.54-4,1.1-.45,1.82.42,1.9,1.45.29,7.29,1.5,33.71,1.6,42.08-.16,1.87-2.69,3.4-4.12,1.56-1-1.64-1.22-3.68-2.21-6.72-2.13-6.94-5.72-20.14-7.7-25.92-.17,0,0,2.95.18,7.41.25,6.49.63,16.15.88,22.69-.11,3.53,1,5.69-1.24,7.56-1.21.75-2.13-.3-2.1-1.48-.31-7.33-1.35-35-1.63-42.31A2.59,2.59,0,0,1,133,589.7Z" transform="translate(0 0)"></path><path class="cls-4" d="M164.56,617.47c-1.65-.67-4.53.29-6.09,1.95-1.87,2-1.24,5.45-2.48,7.81-1.29,2.82-3.23,2.79-3,.85.68-7,3.6-36.46,4.31-43.48a2.55,2.55,0,0,1,1.73-2.28c2-.93,4.15-.85,4.25,1.16,2.13,10.84,5.75,28.66,7.65,38.75.22,1.74-1.84,3.06-3.36,1-1.38-1.61-.91-4.45-2.83-5.66Zm-.34-5.25c.79-.59.32-1.51,0-3.4-1.23-6.35-2.67-14.23-3.95-20.54-.05-.14-.08-.15-.11,0-.18,1.67-1.92,19.83-2.28,25.11.17,1.19,1.47.49,3.05.13a15.13,15.13,0,0,0,3.17-1.19Z" transform="translate(0 0)"></path><path class="cls-4" d="M173.48,578.82c3.28-1.19,8.56-3,11.78-.82,2.87,2.06,3.42,8.18,2.55,12.45-.31,1.63-1.25,3.42-1.32,5,0,1.24.73,2.28,1.33,3.38,1.78,2.76,2.19,7.75,1.69,11.76a11.22,11.22,0,0,1-7,9.58c-2.64,1-8.6,3.86-8.53,1.18-.27-5.38-1-24.52-1.38-32.88-.13-3.7-.31-6.59-.29-8a1.71,1.71,0,0,1,1-1.51ZM180.3,596c3.92-1.25,4.37-5,4.17-8.68-.06-2.65-.76-6.65-4.57-5.66-1.28.34-3.53.42-3.53,2,0,2.14.36,9,.47,11.94,0,1.94,1.84.89,3.23.52Zm1.85,19.8c4.77-1.95,3.8-7.84,3.47-11.95-.41-3.46-2.3-4.88-6-3.74-2.63.61-2.66,1.35-2.43,4.34.21,3.61.24,8.7.56,11.92.44,1.25,3-.15,4.16-.48Z" transform="translate(0 0)"></path><path class="cls-4" d="M193.15,573.9c1.21-.66,2.77-.47,2.86.91.32,5.89,1.39,31.35,1.72,38.41a2.67,2.67,0,0,1-.52,2c-1,1.16-3.25,1.55-3.4-.19-.14-1.58-.22-4.61-.4-8.32-.35-8-.8-18.23-1.14-25.92.14-2.21-1-5.95.78-6.84Z" transform="translate(0 0)"></path><path class="cls-4" d="M201.33,605.47c.14-1.68,1.31-3.27,2.74-1.39,1.11,1.3,2.07,3.57,3.82,3.71,4.56-.14,5.13-6,3.72-9.2-2.19-4.84-8.77-7.48-10.7-12.56-2.94-6.47,1-18.46,10.39-15.43a6.43,6.43,0,0,1,3.34,6.76c-.33,1.41-1.12,1.84-2,1.14-1.2-.85-2.37-3-3.88-3.52-5.07-.77-5.54,6.82-3.37,9.54,2,3.14,6.72,5.93,8.89,9.11a13.94,13.94,0,0,1,.12,14.93c-4.52,6.38-13.28,5-13.08-2.88Z" transform="translate(0 0)"></path><path class="cls-4" d="M227.72,566.19c14.76-5,15.19,2.52,15.49,14.24-.23,7,2.7,15.48-2.86,21.3-1.12,1.54-11,5.57-11.87,3.6-.5-3.32-.48-10-.94-17.87-.28-6.33-.7-14.43-.87-19.65a1.61,1.61,0,0,1,.92-1.55Zm8.26,34c4.71-2.28,3.93-7.55,3.75-11.62-.19-3.9-.44-9.44-.59-12.51a12.6,12.6,0,0,0-.92-5.1c-1.06-2.27-4.83-2.93-6.87-1.29-1,.87-.62,2.45-.54,5.08.21,4.57.42,9.13.63,13.79.2,4.24.33,7.36.48,10.38-.09,2.42,1.94,2.29,3.87,1.36Z" transform="translate(0 0)"></path><path class="cls-4" d="M247.62,562c1.21-.61,2.8-.39,2.9,1,.34,5.42,1.39,28,1.73,34.53a2.52,2.52,0,0,1-.56,2c-1,1-3,1.3-3.32-.09s-.23-4.16-.44-7.62c-.38-7.7-.84-17.24-1.21-24.72,0-2.14-.69-4.36.8-5.06Z" transform="translate(0 0)"></path><path class="cls-4" d="M255.89,590.83c1.23-5.54,4.29,2.83,7.22,2,4-.91,4.45-6,2.56-8.91-2.61-4.05-8.47-6.45-10.34-11.06-1.74-4-.8-10.19,3.13-12.64,2.45-1.63,6.14-2,8.49-.2,1.89,1.17,3.17,5.28,1.41,6.56-.75.49-1.85-.64-3-1.79-2.58-3-5.91-1.21-6.53,2.06-.78,3.74,2.36,6.68,5.37,9,2.38,2,4.86,3.91,6,6.69,1.63,3.88.91,9.57-2.45,12.41-4.78,4.26-12.12,2.36-11.84-4Z" transform="translate(0 0)"></path><path class="cls-4" d="M274.28,557.13c3.1-1,8.05-2,11.18-.41,3.81,2,4.28,9.29,3,13.74-.86,3.4-4.31,5.2-7.59,6.37-2.93,1.27-2.66,3.36-2.53,6.37-.05,3.23,1,6.59-.4,9.21-.81,1.28-2.14,1.41-2.75.62-1.08-5.08-1.06-20-1.79-29.48.12-2-1-5.68.77-6.35Zm7.4,15.86c3.83-1,3.74-4.67,3.5-8.12-.16-3.68-1.26-6.13-5.86-5-2.4.36-2.22,1-2,3.77.08,1.6.16,3.26.24,4.87s.15,3.16.21,4.06c.1,1.83,2.31.74,3.7.5Z" transform="translate(0 0)"></path><path class="cls-4" d="M292.52,553.9c2.09-.86,6.34-1.25,9-1.68,3.21-.42,5.12.46,4.18,1.61a4,4,0,0,1-1.31,1c-3.47,1.75-8.72.79-8.25,5.84.26,2.82-.39,6,2.22,6.85,1.43.31,3.14-.07,4.57.23,1.16.19,1.85.65,1.56,1.26-2.35,3.09-8.05,1.63-7.52,7,.42,3.48-.9,9.24,3.92,8.32,1.55-.2,3.63-.7,5.11-.47,3.43.59,1.05,2.52-1.65,3.34-2.25.66-5.44,1.3-7.44,1.72-2.26.48-3.45.45-3.45-1.55-.33-5.78-1.42-25.93-1.7-31.45,0-.77,0-1.47.69-1.92Z" transform="translate(0 0)"></path><path class="cls-4" d="M310.61,551.13c2.17-1.18,4.38.59,5,2.53,1.95,4.7,6.09,15.26,7.21,17.83.87,2,.44-1.61.44-2.5-.17-5-.9-12.62-.8-17.29.65-4.18,3.55-2.53,3.44.16.34,6.09,1.28,22.12,1.5,27.55a2.81,2.81,0,0,1-1.63,2.81c-2.91.43-3.37-2.29-4.55-5-1.69-4.25-4.12-10.36-5.78-14.52-2.38-5.9-2.39-6.75-2,.14.25,4.7.65,12,.91,16.75a9.53,9.53,0,0,1-.26,4.12c-.49,1.27-1.79,1.93-2.67.73a4.38,4.38,0,0,1-.53-2.12c-.34-6.34-1.24-22.87-1.52-28.53a2.65,2.65,0,0,1,1.1-2.6Z" transform="translate(0 0)"></path><path class="cls-4" d="M331.12,574.29c.52-2.68,2.21-1.45,3.92.27,1.7,1.93,4.53,2.11,6-.12,2.38-3.31-.64-7.05-3.8-9.16-2.54-1.95-5.47-3.75-6.8-6.59-1.6-3.39-.73-8.32,2.91-10.41s9.3-1.54,10.79,2.34c.51,1.45.32,2.93-.77,3.25-.75.15-1.77-.8-2.88-1.71-1.78-1.81-4.57-1.83-5.92.41-3.07,6,6.2,9,9.39,13,3.27,3.51,3,9.87-1.36,12.75-4.28,3.1-11.77,1.76-11.53-3.81Z" transform="translate(0 0)"></path><path class="cls-4" d="M360.17,569.92a5.94,5.94,0,0,0-5.66.56c-1.86,1.14-2.15,3.27-3.15,4.91-1.18,2.28-3.28,2.38-3,0,.77-5.49,3.29-22.83,4.1-28.07.24-1.74,2-2.53,3.74-2.48a2.72,2.72,0,0,1,2.75,2.24c1.35,4.57,3.55,12.19,5.05,17.33.63,3.4,3.8,9.2,1.27,9.87-1.89.41-3.38-3.21-5-4.24Zm-.29-4.08c.57-.69-.23-1.71-.64-3.73l-3.3-12c-.12-.37-.23-1-.37-.78-.12,1.31-2.11,14-2.19,17.32.1.2.32.28.73.27.67,0,2-.26,3.26-.45a10.29,10.29,0,0,0,2.42-.55Z" transform="translate(0 0)"></path><path class="cls-4" d="M368.62,543.7a21.22,21.22,0,0,1,10.6-.34c4.12,1.2,5.14,6,3.85,9.64a14.24,14.24,0,0,0-.84,3,6.59,6.59,0,0,0,1.16,3.43,13.9,13.9,0,0,1,1.55,5.37c.47,2,.16,5.61-1.26,5.72-4.76-.16-.23-11.94-8.72-10.85-4.4,1.59-.87,8.68-2.38,11.82-1.16,3-3.67,1.66-3.56-.92-.36-5.59-1.27-19.52-1.57-24.46,0-.95,0-1.9,1-2.37Zm7.11,12.56c3.85-.53,4.53-3.64,3.87-7.06-.29-2.85-2.63-3.57-5.78-3.06-1.87.14-2.24.48-2,2.2.14,2.12.32,5.45.47,7.38.17,1.46,2,.7,3.19.59Z" transform="translate(0 0)"></path><path class="cls-4" d="M392.48,557.56c-.86-2.61-3.3-6.14-4.87-9.06-1.14-2-4.95-7.54-.41-6.42,3.4,1.36,5.19,7.62,6.9,9.13s3.16-5.69,3.87-6.67c.61-1.75,3.4-5.46,4.63-3.19a4.07,4.07,0,0,1-.24,2.22c-1.23,3.36-3.24,8-4.44,11.42-1.62,4.14.65,8.79-.66,13-.89,2.29-3.25,1.77-3.78-1.6-.41-2.64-.32-6.25-1-8.62Z" transform="translate(0 0)"></path><path class="cls-4" d="M419.94,556.17c-1.4-.91-3.81,0-5.37-.61-.91-.22-1.07-.9-.27-1.35,1.55-1.08,4.57-.74,5.48-2.18.92-1.24.27-3.79,1.93-4.49,1.35.08,1.59,1.73,2,2.8.31,1.47,1.73,2,3.24,1.88,1.1-.11,5.23.16,3,1.6-1.49,1-5,.62-5.59,2.63a22.34,22.34,0,0,1-.77,3.13c-1,2.09-2.4.12-2.75-1.72a3,3,0,0,0-.78-1.57Z" transform="translate(0 0)"></path><path class="cls-4" d="M442.24,538.07a26.9,26.9,0,0,1,9.25-.3c4.57.6,6.12,4,6.25,7.59.1,3.83,1.58,9.64-.27,12.72s-6.86,3.67-10.44,4.1c-2.13.26-4.2.31-4.17-2-.29-3.36-.86-11.15-1.27-16.39,0-2.07-.84-5.31.51-5.67Zm8.75,21c4.39-.92,3.61-4.72,3.28-8.32-.41-2.84-.07-7.59-1.48-9.27s-4.55-1.71-6.6-1.21a1.26,1.26,0,0,0-.86,1.45c.13,2,.49,6.29.79,10.15.21,2.57.32,4.45.49,6.23-.07,1.73,2.25,1.44,4.13,1Z" transform="translate(0 0)"></path><path class="cls-4" d="M461.61,537.32a11.72,11.72,0,0,1,4-.53c3.47,0,7-.66,9.36.6.32.41-.21.63-.72.85-2,.83-5,.53-7,1.27-2.45,1-2.18,4.35-.71,5.84,1.26,1.54,6.74.92,7.06,2.06-.71,1.17-3.38,1.19-4.7,1.69-3.61.67-3.14,6.39-.89,7.64,2.12.93,4.9.08,7.14.48,3.27.46,1.38,1.5-1.2,2-1.61.3-3.8.45-5.68.64-2.82.24-5.74.87-5.75-2.16-.39-4.13-1.31-14.69-1.59-18.41,0-.72,0-1.44.6-1.86Z" transform="translate(0 0)"></path><path class="cls-4" d="M479.46,536.67a2.29,2.29,0,0,1,3.14,2.06c.42,3.45,1,11.72,1.44,15,.2,3.55,5.83,1.26,8.34,1.94,1.26.16,1.9.52,1.64.91-1.61,1.43-6.12,1.22-8.67,1.57-2.21,0-4.57.94-5.1-1.14-.54-4.3-1.33-14.22-1.7-18.37a1.88,1.88,0,0,1,.8-1.88Z" transform="translate(0 0)"></path><path class="cls-4" d="M496.1,536.36c1-.23,3-.36,3.28.82.37,2.72,1.37,14.08,1.75,17.85.39,1.64-1.31,1.86-2.63,1.79-1.51-.12-1.29-1-1.45-2.29-.39-4.16-1-10.92-1.45-15.37-.1-1.61-.44-2.47.37-2.76Z" transform="translate(0 0)"></path><path class="cls-4" d="M503,536.39c1.7-.71,3.33,1.07,4,2.4,1.51,3.27,4.28,10.33,5.3,12.43.29.61.69,1,1,.12.73-2.59,1.27-5.75,1.91-8.52.55-2.46,1.1-7.21,4-6.3.86.35.74,2.51.3,3.94-.6,2.61-1.45,6.29-2.1,9.13a33.35,33.35,0,0,1-1.07,4.11,3.89,3.89,0,0,1-5.58,1.61c-1.55-1.07-1.86-2.88-2.66-4.49-1.56-3.63-3.55-8.23-5-11.73-.63-1.41-.61-2.26-.05-2.64Z" transform="translate(0 0)"></path><path class="cls-4" d="M523.24,536.62a8.42,8.42,0,0,1,3.38-.43c3.5.16,7.59-.32,10,.88a.18.18,0,0,1,0,.27,5.07,5.07,0,0,1-2.1.58c-1.6.26-3.89.1-5.36.59-2.36.76-2.47,3.23-.66,4.54,1.6,1.52,11.11,1.4,4.24,2.8-1.28.25-2.89.43-3.79,1.31a3.24,3.24,0,0,0,1.77,5.34c1.93.46,4.3.12,6.23.45,5.41,1-4.53,1.91-5.94,1.82-3.45.08-7,1-7-3-.38-3.26-1.06-9.47-1.38-12.59,0-.87-.24-1.91.51-2.51Z" transform="translate(0 0)"></path><path class="cls-4" d="M541,536.72c1.44-.7,5.76-.31,8.29-.05,5.06.6,8.28,2.77,6.11,7.31-.51,2.06,1.55,3.59,2.13,5.48.75,2-.31,3.93-1.56,3.45-1.42-.61-2-2.14-2.62-3.38a5.28,5.28,0,0,0-4.76-3.11c-4-.22-2.58,4.39-3.81,6.5-1.77,2.59-3.52-.89-3.46-2.59-.37-3.3-1-8.68-1.25-11.34-.05-.83,0-1.77.79-2.19Zm7.41,7.64c1.44-.13,2.62-.11,3.61-1a3.32,3.32,0,0,0-.31-3.74,5.31,5.31,0,0,0-3.42-1.1,27.29,27.29,0,0,0-3.37,0c-.24,0-.38.12-.44.28a7.46,7.46,0,0,0,.11,1.84c.13,1,.22,2.6.42,3.34.37.81,2.29.38,3.15.46Z" transform="translate(0 0)"></path><path class="cls-4" d="M565.08,546.55c-1.49-2.74-5-5.32-7.05-7.93-1.54-2,1.19-2.09,3.84-.24,2.64,1.57,4.33,6,6.9,3.61,1.17-1.26,2.34-3,4-3.78,1.85-1,3.09-.34,2.21,1.35-1.22,2.26-3.85,4.48-4.51,7-.5,1.65.27,3.75-.33,5.22-.73,2-2.85,1.41-3.63-.24-.76-1.41-.66-3.43-1.32-4.83Z" transform="translate(0 0)"></path><path class="cls-5" d="M1080.25,379.93c-8.5.09-15-5.72-23.23-5l.86-2.92c-.23-1.68-10.7,2-7.3-2.83l-9.19.23c-1.79-1.35.35-2.73.46-4.15l-9.06,1.23-.41-3-8,1.09.15-2.57-8.48,1.66,0-3.56c-3.6,1.58-5.95-.31-9.49,1.8l-.84-2.43c-3,.61-5.26-1.34-7.78,1.3l-1.61-2.61-6.42,1.93-.27-2-8.09,2.8-1.77-2.11c-3.16,2.19-5.74-.45-9.25,1.93l-.26-3.78L958,361l-1.41-.86-.14-2.84c-1.63,2-13.64,3.2-13.66,5a62.91,62.91,0,0,1,5.19,8l132.43,9.88-.19-.14" transform="translate(0 0)"></path><path class="cls-6" d="M1080.44,380.07,948,370.19c2.22,4,4.13,8.13,6,12.27,4.83-1.92,9.45,3.5,14.26,4.43L967,385c1.83-3.52,3.54-.1,5.15.09.43.05,1.26-1,2.18-.71,1.13.38,2.49,2.18,3.13,2.13.48,0,1.46-2,2.62-1.37l6.43,3.83,1.15-2.71,6.73,4.19,1.16-2.72c2.88,1.63,7.62,3.63,8.62-.67,2.65,3,5.75,2.72,9.37,3.05l-.12-2,1.3-.67,6.8,2.89c-.81-4.85,5.5-1.43,8.19-.1l1.58-3.22,8,2.4c.78-.22-.7-2.14-.66-2.44.34-2.76,1.83-.9,3-.69,2.38.42,4.9.08,7.13,1.31l.42-.55c-3-3.68,5-2.11,7-1l-.2-3.28c1.52-.49,3.28.64,4.67.43,2-.3,6.86-2,8.66-2.2,3-.34,6.82.1,10-.09.79-.05,2.55.26,1.09-.82" transform="translate(0 0)"></path><path class="cls-5" d="M950.24,351.7l12.16-5.84-2-2.49c1-.55,2.41-.59,3.24-1.26,1-.83,4.14-4.44,5.18-5.16,1.46-1,5-1.39,6.71-2.42l-1.34-2.2,6.22-2.26,0-2.66,6.3-3.53-1.35-2.18,8.52-4.78c0-1-3.49-1.05-2-2.48l6.45-3.74-1.49-1.88,6.31-3.44-1.05-2.82,6.61-4.09c-.27-1.29-3.18-.67-2-2.5,1.25-2,5-3.51,6.26-5.05s-1.87-1.4-1.34-2.16l5.45-5-2.44-1.51c4.51-2.17,5-6.57,7.31-9.78,1.44-2.05,3.86-4,5.27-6,.45-.62,1.73-2,.49-2.35-4.94,5.81-12.61,7.17-17.93,12.25l-.94.36-1.68-2.33-4,5.26-2.29-1.86-5.58,6.92-1.69-3.15-4.66,5.8-2.43-.81-4.45,6.29-2.29-1.85c-1.16.53-2.85,11.07-6,4.36l-5.53,8.52-1.34-2.2-5,7.15-2.11-.5-2.28,5.2-2.38-.23c-.89,1.56-1.34,3.83-2.34,5.23s-2.45.51-2.94,1.14c-.61.81-.74,2.18-1.43,3.1-1.08,1.43-2.89,1.5-2.74,4.29l-1.62.09-.84-1.6-3.55,10.68c-3.54-.09-2.19,2.31-3.8,5.26s-4.32,5.85-6.33,8.57c3.24,1.55,6.21,5.61,9.14,7.22,3.71,2,9.12-3.14,13-3.75Z" transform="translate(0 0)"></path><path class="cls-5" d="M928.59,338.87l6.77-8L932.6,330l4.77-6.84-1-1.36c4.32-3.17,2.33-7.08,6.43-10.33l-1-1.44,3.51-5.79-2-.91,4.91-7.22-3.55-.85,4.3-5.92-1.76-1.26,3.16-5.21-2.25-.24,4-6.87-2.9-.55,2.64-7.48-1.67-.7,1.7-4.72c-3.62-1.79-.88-3.48-.45-6,.35-2.08-.09-4.42.08-6.52l1.45-8.37c-1.85,6.63-7.45,11.2-8.92,17.58l-1.33.36-1.43-1.2-2.06,6.17-1-1.26-3,8.12-1.82-1.22-1.53,6.79-2-.9-.59,6.42-2.11-.56-1.07,7.4-1.94-.88L923.05,296l-1.69.07c-.9,1.61,0,7.4-2.73,6.34l.16,6L917,309l.52,5.79-1.87.67c1,2.3-.18,3.76-.63,5.65-.19.79.84,4-1.16,2.61-.88-.6-1.22-2.3-1.81-.43l.63,10.59-2.6.42-.16,6.64,14.92,7.5,5.15-7.67Z" transform="translate(0 0)"></path><path class="cls-6" d="M1017.86,449l-.3-1.49,2-1.59-6.21-3.66,2.27-1.89-8-4.93,2.69-2.47-7.8-3.92,1.69-2.33L997,423.23l1.25-1.74-7.19-3.5,2.68-2.48-9.08-4,1.55-1.54c-1.44-2.08-5.74-2.87-7-4.2-.43-.46.85-1.39-.31-2.08-1.71-1-4.62-.17-6.26-1.87l1-2L966.1,398l.27-1.7c-3.54-.74-5.6-2.72-8.66-4.48L960,390l-3.9-2c-.92.8-.54,1.4-.38,2.36,1.09,6.46,3,12.91,3.54,19.48.36,4.53-1.09,14,1.65,17.21l2.44-.88,4.52,6,1.54-1.53,6.54,7.46,1.42-2.52,4.8,6.18,1.88-1.33,5.22,5.61,1.59-1.54,5.79,6c.38-1.53.43-2.87,2.4-2.59l5.82,5.93.52-1.74,1.5-.3,4.46,4.13,1.7-2.34,4.72,3.9,13.19,5.65c-5.66-3.92-7.15-10.58-13.08-14.14" transform="translate(0 0)"></path><path class="cls-5" d="M903.92,333.82c.18-4.47-3.53-6.68-2.11-10.91l-2.25-.23c.93-5.1-5.27-9.64-6.25-14.75l-1.89.71c-.7-1.18-.81-3.22-1.62-4.2-1.08-1.33-4.8-4.12-5.56-5-.62-.72-.72-3-1.32-3.22-.41-.16-1.57.7-2.34.22-.57-.36-.85-2-1.63-2.67-2.44-2.21-5.27-3.25-7.49-4.76-2.57-1.75-4.92-3.92-7.51-5.66,3.11,6,8.46,10.32,11.77,16.48,4.36,8.13,4.12,16.23,7.83,24.18a80.65,80.65,0,0,0,4.89,9.8,30.69,30.69,0,0,0,1.5,3c1.73,1.75,7.14,1.63,10,2.19,1.45.29,5,2.31,5.84,1.14-.21-2.81,1.39-6-1.82-6.3" transform="translate(0 0)"></path><path class="cls-6" d="M968,460.91c-.12-1.14,1.63-1.91,1.55-2.39,0-.26-3-2.6-3.12-3.22s1-1.72.87-2.45-4-3.89-4.23-5.26l1.59-2.43L960,441.43l1.85-2.28-1.64-1.56-4.7,23.9,2.23-.57,3,4.59.92-2,3.92,4.66,8.46,6.19c-2.45-2.24-1.82-4.77-2.56-6.64-.58-1.5-3.49-6.46-3.53-6.85" transform="translate(0 0)"></path></svg>